<?xml version="1.0" encoding="iso-8859-1"?>
<!-- Uploaded to: SVG Repo, www.svgrepo.com, Generator: SVG Repo Mixer Tools -->
<svg fill="#000000" height="800px" width="800px" version="1.1" id="Layer_1" xmlns="http://www.w3.org/2000/svg" xmlns:xlink="http://www.w3.org/1999/xlink" 
	 viewBox="0 0 512 512" xml:space="preserve">
<g>
	<g>
		<path d="M275.853,348.61c-2.886,0-5.224,2.338-5.224,5.224v14.819c0,2.885,2.338,5.224,5.224,5.224
			c2.886,0,5.224-2.339,5.224-5.224v-14.819C281.078,350.949,278.739,348.61,275.853,348.61z"/>
	</g>
</g>
<g>
	<g>
		<g>
			<path d="M425.625,404.309c-0.016-0.011-0.2-0.134-0.706-0.471c-0.342-0.227-0.367-0.244-0.225-0.149
				c0.064,0.043,0.135,0.09,0.212,0.141c-0.001-0.001-0.003-0.002-0.004-0.003C425.756,404.398,428.067,405.937,425.625,404.309z"/>
			<path d="M502.975,417.597v-4.705c0-14.621-11.865-26.516-26.449-26.516c-1.813,0-3.606,0.185-5.357,0.547
				c-3.246-6.19-8.85-10.865-15.57-12.943V236.441c12.092-6.404,20.352-19.114,20.352-33.722v-66.749
				c0-12.605-10.295-22.859-22.952-22.859h-75.255V84.566c0-9.599-7.81-17.408-17.408-17.408h-34.678
				C312.136,41.409,285.332,25.039,256,25.039c-29.332,0-56.136,16.37-69.658,42.119h-34.679c-9.598,0-17.408,7.81-17.408,17.408
				v28.545H59.001c-12.656,0-22.952,10.255-22.952,22.859v66.749c0,14.608,8.26,27.319,20.352,33.722v21.644
				c0,4.329,3.508,7.837,7.837,7.837c4.329,0,7.837-3.508,7.837-7.837v-17.289c0.7,0.039,1.404,0.062,2.113,0.062
				c12.341,0,23.326-5.896,30.302-15.016c6.976,9.12,17.961,15.016,30.302,15.016c12.341,0,23.326-5.896,30.302-15.016
				c6.976,9.12,17.961,15.016,30.302,15.016s23.326-5.896,30.302-15.016c6.976,9.12,17.961,15.016,30.302,15.016
				c12.34,0,23.326-5.896,30.302-15.016c6.976,9.12,17.962,15.016,30.302,15.016c12.34,0,23.326-5.896,30.302-15.016
				c6.976,9.12,17.962,15.016,30.302,15.016c12.34,0,23.326-5.896,30.302-15.016c6.976,9.12,17.962,15.016,30.302,15.016
				c0.709,0,1.414-0.022,2.113-0.062v133.184c-4.418,1.366-8.346,3.859-11.446,7.162v-94.832c0-10.082-8.203-18.286-18.286-18.286
				h-58.657c-10.082,0-18.286,8.203-18.286,18.286v151.712c0,10.082,8.203,18.286,18.286,18.286h31.987v11.494
				c0,1.192,0.123,2.353,0.332,3.486h-62.492v-64.623V282.127c0-10.564-8.576-19.159-19.116-19.159H209.75
				c-10.541,0-19.116,8.595-19.116,19.159v124.539v64.623h-62.492c0.209-1.133,0.332-2.294,0.332-3.486v-11.494h31.987
				c10.082,0,18.286-8.204,18.286-18.286V286.31c0-10.082-8.203-18.286-18.286-18.286h-58.654c-10.082,0-18.286,8.204-18.286,18.286
				v94.832c-3.1-3.303-7.029-5.797-11.446-7.162v-86.638c0-4.329-3.508-7.837-7.837-7.837c-4.329,0-7.837,3.508-7.837,7.837v86.638
				c-6.721,2.077-12.323,6.753-15.57,12.943c-1.751-0.363-3.544-0.547-5.357-0.547c-14.584,0-26.45,11.895-26.45,26.516v4.705
				C3.616,420.985,0,426.988,0,433.836v33.965c0,10.564,8.576,19.159,19.116,19.159h473.767c10.541,0,19.116-8.595,19.116-19.159
				v-33.965C512,426.988,508.384,420.985,502.975,417.597z M99.194,286.31c0-1.441,1.171-2.612,2.612-2.612h58.657
				c1.441,0,2.612,1.171,2.612,2.612v151.712c0,1.441-1.171,2.612-2.612,2.612h-31.987v-5.224h21.538
				c4.329,0,7.837-3.508,7.837-7.837V296.759c0-4.329-3.508-7.837-7.837-7.837h-37.759c-4.329,0-7.837,3.508-7.837,7.837v92.216
				c-1.653-0.796-3.404-1.419-5.224-1.859V286.31z M24.698,412.891c0-5.979,4.834-10.843,10.776-10.843
				c2.112,0,4.16,0.62,5.921,1.791c4.822,3.207,11.525,0.039,12.133-5.702c0.583-5.516,5.187-9.677,10.709-9.677
				c5.522,0,10.126,4.161,10.71,9.678c0.404,3.835,3.609,6.705,7.379,6.938c3.895,0.24,6.709-3.028,10.675-3.028
				c5.942,0,10.776,4.864,10.776,10.843v1.788h-79.08V412.891z M109.358,471.288H19.116c-1.898,0-3.443-1.563-3.443-3.486v-33.965
				c0-1.921,1.545-3.484,3.443-3.484h90.242c1.899,0,3.444,1.563,3.444,3.484c0,0,0,33.965,0,33.965
				C112.802,469.724,111.257,471.288,109.358,471.288z M120.092,418.027V304.596h22.086v115.14h-19.921
				C121.579,419.115,120.853,418.547,120.092,418.027z M305.692,471.288h-99.383v-56.786h99.383V471.288z M305.692,398.828h-5.224
				V291.702c0-4.329-3.508-7.837-7.837-7.837H219.37c-4.329,0-7.837,3.508-7.837,7.837v59.384c0,4.329,3.508,7.837,7.837,7.837
				s7.837-3.508,7.837-7.837v-51.547h57.587v99.289h-57.587v-16.395c0-4.329-3.508-7.837-7.837-7.837s-7.837,3.508-7.837,7.837
				v16.395h-5.224V282.127c0-1.923,1.545-3.486,3.443-3.486h92.498c1.898,0,3.443,1.563,3.443,3.486V398.828z M96.653,202.719
				c0,12.387-10.078,22.465-22.465,22.465c-12.387,0-22.465-10.078-22.465-22.465v-12.016h44.931V202.719z M157.257,202.719
				c0,12.387-10.078,22.465-22.465,22.465c-12.387,0-22.465-10.078-22.465-22.465v-12.016h44.931V202.719z M217.861,202.719
				c0,12.387-10.078,22.465-22.465,22.465s-22.465-10.078-22.465-22.465v-12.016h44.931V202.719z M278.465,202.719
				c0,12.387-10.078,22.465-22.465,22.465c-12.387,0-22.465-10.078-22.465-22.465v-12.016h44.931V202.719z M339.069,202.719
				c0,12.387-10.078,22.465-22.465,22.465s-22.465-10.078-22.465-22.465v-12.016h44.931V202.719z M399.673,202.719
				c0,12.387-10.078,22.465-22.465,22.465c-12.387,0-22.465-10.078-22.465-22.465v-12.016h44.931V202.719z M51.722,175.029v-39.059
				c0-3.962,3.265-7.186,7.279-7.186h75.254v17.043c0,9.601,7.81,17.41,17.408,17.41H305.11c4.329,0,7.837-3.508,7.837-7.837
				c0-4.329-3.508-7.837-7.837-7.837H151.663c-0.956,0-1.735-0.78-1.735-1.737V84.566c0-0.956,0.778-1.734,1.735-1.734h39.587
				c3.098,0,5.904-1.824,7.163-4.655C208.521,55.418,231.126,40.712,256,40.712s47.48,14.705,57.587,37.464
				c1.258,2.831,4.065,4.655,7.162,4.655h39.587c0.956,0,1.734,0.778,1.734,1.734v61.261c0,0.957-0.778,1.737-1.734,1.737h-25.969
				c-4.329,0-7.837,3.508-7.837,7.837c0,4.329,3.508,7.837,7.837,7.837h25.969c9.599,0,17.408-7.811,17.408-17.41v-17.043h75.255
				c4.013,0,7.279,3.224,7.279,7.186v39.059H51.722z M437.812,225.184c-12.387,0-22.465-10.078-22.465-22.465v-12.016h44.931v12.016
				C460.278,215.106,450.2,225.184,437.812,225.184z M424.901,403.828c-0.086-0.057-0.157-0.105-0.207-0.138
				c-0.291-0.194-0.396-0.264,0.225,0.149c4.813,3.206,11.526,0.048,12.133-5.7c0.584-5.517,5.188-9.678,10.71-9.678
				s10.126,4.161,10.709,9.677c0.406,3.835,3.607,6.705,7.378,6.939c3.896,0.241,6.71-3.027,10.677-3.027
				c5.941,0,10.776,4.864,10.776,10.843v1.788h-79.08v-1.788c0-5.979,4.834-10.843,10.776-10.843
				C421.105,402.048,423.145,402.665,424.901,403.828z M383.525,440.634h-31.987c-1.441,0-2.612-1.171-2.612-2.612V286.31
				c0-1.441,1.171-2.612,2.612-2.612h58.657c1.441,0,2.612,1.171,2.612,2.612v100.807c-1.82,0.44-3.571,1.064-5.224,1.859v-92.216
				c0-4.329-3.508-7.837-7.837-7.837h-37.759c-4.329,0-7.837,3.508-7.837,7.837v130.814c0,4.329,3.508,7.837,7.837,7.837h21.539
				V440.634z M391.909,418.027h-0.001c-0.762,0.52-1.488,1.089-2.165,1.711h-19.92V304.596h22.086V418.027z M496.327,467.802
				c0,1.923-1.544,3.486-3.443,3.486h-90.242c-1.899,0-3.444-1.563-3.444-3.486v-33.965c0-1.921,1.545-3.484,3.444-3.484h90.242
				c1.898,0,3.443,1.563,3.443,3.484V467.802z"/>
		</g>
	</g>
</g>
<g>
	<g>
		<path d="M290.969,421.471h-69.937c-4.329,0-7.837,3.509-7.837,7.837v27.174c0,4.329,3.509,7.837,7.837,7.837h69.937
			c4.329,0,7.837-3.508,7.837-7.837v-27.174C298.805,424.98,295.298,421.471,290.969,421.471z M283.132,448.645h-54.264v-11.5
			h54.264V448.645z"/>
	</g>
</g>
<g>
	<g>
		<path d="M338.562,93.28H320.75c-7.221,0-13.781-4.264-16.711-10.863C295.607,63.429,276.751,51.161,256,51.161
			c-20.751,0-39.606,12.269-48.039,31.257c-2.931,6.597-9.49,10.862-16.711,10.862h-17.811c-7.202,0-13.061,5.859-13.061,13.061
			v17.712c0,7.201,5.859,13.061,13.061,13.061h165.122c7.202,0,13.062-5.86,13.062-13.061v-17.712
			C351.623,99.139,345.764,93.28,338.562,93.28z M176.051,121.441v-12.488h15.199c13.41,0,25.593-7.918,31.036-20.174
			c5.92-13.331,19.154-21.945,33.715-21.945c14.561,0,27.794,8.613,33.715,21.944c5.443,12.256,17.625,20.175,31.036,20.175h15.199
			v12.488H176.051z"/>
	</g>
</g>
</svg>